<mxfile host="app.diagrams.net" agent="Mozilla/5.0 (Macintosh; Intel Mac OS X 10_15_7) AppleWebKit/605.1.15 (KHTML, like Gecko) Version/18.3.1 Safari/605.1.15" version="26.2.13">
  <diagram name="Page-1" id="5-3eEfi6PnfUuKlw7ehx">
    <mxGraphModel dx="1053" dy="738" grid="1" gridSize="10" guides="1" tooltips="1" connect="1" arrows="1" fold="1" page="1" pageScale="1" pageWidth="827" pageHeight="1169" math="0" shadow="0">
      <root>
        <mxCell id="0" />
        <mxCell id="1" parent="0" />
        <mxCell id="i6YcqsCiEfbS-OPXxfi0-38" value="" style="shape=flexArrow;endArrow=classic;html=1;rounded=0;" edge="1" parent="1">
          <mxGeometry width="50" height="50" relative="1" as="geometry">
            <mxPoint x="220" y="239.41" as="sourcePoint" />
            <mxPoint x="840" y="239.41" as="targetPoint" />
          </mxGeometry>
        </mxCell>
        <mxCell id="i6YcqsCiEfbS-OPXxfi0-39" style="edgeStyle=orthogonalEdgeStyle;rounded=0;orthogonalLoop=1;jettySize=auto;html=1;exitX=0;exitY=0;exitDx=105;exitDy=80;exitPerimeter=0;entryX=0.5;entryY=0;entryDx=0;entryDy=0;" edge="1" parent="1" source="i6YcqsCiEfbS-OPXxfi0-31" target="i6YcqsCiEfbS-OPXxfi0-13">
          <mxGeometry relative="1" as="geometry" />
        </mxCell>
        <mxCell id="i6YcqsCiEfbS-OPXxfi0-31" value="app" style="shape=cube;whiteSpace=wrap;html=1;boundedLbl=1;backgroundOutline=1;darkOpacity=0.05;darkOpacity2=0.1;" vertex="1" parent="1">
          <mxGeometry x="600" y="200" width="190" height="80" as="geometry" />
        </mxCell>
        <mxCell id="i6YcqsCiEfbS-OPXxfi0-42" style="edgeStyle=orthogonalEdgeStyle;rounded=0;orthogonalLoop=1;jettySize=auto;html=1;exitX=0;exitY=0;exitDx=105;exitDy=80;exitPerimeter=0;entryX=0.5;entryY=0;entryDx=0;entryDy=0;" edge="1" parent="1" source="i6YcqsCiEfbS-OPXxfi0-30" target="i6YcqsCiEfbS-OPXxfi0-11">
          <mxGeometry relative="1" as="geometry" />
        </mxCell>
        <mxCell id="i6YcqsCiEfbS-OPXxfi0-30" value="data-preprocessing" style="shape=cube;whiteSpace=wrap;html=1;boundedLbl=1;backgroundOutline=1;darkOpacity=0.05;darkOpacity2=0.1;" vertex="1" parent="1">
          <mxGeometry x="430" y="200" width="190" height="80" as="geometry" />
        </mxCell>
        <mxCell id="i6YcqsCiEfbS-OPXxfi0-6" value="newsUrls.ipynb" style="rounded=0;whiteSpace=wrap;html=1;fillColor=#1ba1e2;fontColor=#ffffff;strokeColor=#006EAF;" vertex="1" parent="1">
          <mxGeometry x="247" y="330" width="120" height="50" as="geometry" />
        </mxCell>
        <mxCell id="i6YcqsCiEfbS-OPXxfi0-9" value="dataExtraction.py" style="rounded=0;whiteSpace=wrap;html=1;fillColor=#008a00;strokeColor=#005700;fontColor=#ffffff;" vertex="1" parent="1">
          <mxGeometry x="373" y="330" width="120" height="50" as="geometry" />
        </mxCell>
        <mxCell id="i6YcqsCiEfbS-OPXxfi0-11" value="dataPrep.ipynb" style="rounded=0;whiteSpace=wrap;html=1;fillColor=#1ba1e2;fontColor=#ffffff;strokeColor=#006EAF;" vertex="1" parent="1">
          <mxGeometry x="510" y="330" width="120" height="50" as="geometry" />
        </mxCell>
        <mxCell id="i6YcqsCiEfbS-OPXxfi0-16" style="edgeStyle=orthogonalEdgeStyle;rounded=0;orthogonalLoop=1;jettySize=auto;html=1;exitX=0.5;exitY=1;exitDx=0;exitDy=0;" edge="1" parent="1" source="i6YcqsCiEfbS-OPXxfi0-6" target="i6YcqsCiEfbS-OPXxfi0-6">
          <mxGeometry relative="1" as="geometry" />
        </mxCell>
        <mxCell id="i6YcqsCiEfbS-OPXxfi0-17" value="&lt;b&gt;Pipeline for results replication&lt;/b&gt;" style="text;html=1;align=center;verticalAlign=middle;whiteSpace=wrap;rounded=0;" vertex="1" parent="1">
          <mxGeometry x="425" y="156" width="200" height="30" as="geometry" />
        </mxCell>
        <mxCell id="i6YcqsCiEfbS-OPXxfi0-21" value="New Sources" style="rounded=0;whiteSpace=wrap;html=1;" vertex="1" parent="1">
          <mxGeometry x="90" y="216" width="120" height="50" as="geometry" />
        </mxCell>
        <mxCell id="i6YcqsCiEfbS-OPXxfi0-22" value="Dataset &amp;amp;&lt;div&gt;Web Application&lt;/div&gt;" style="rounded=0;whiteSpace=wrap;html=1;" vertex="1" parent="1">
          <mxGeometry x="850" y="216" width="120" height="50" as="geometry" />
        </mxCell>
        <mxCell id="i6YcqsCiEfbS-OPXxfi0-24" value="&lt;b&gt;Input&lt;/b&gt;" style="text;html=1;align=center;verticalAlign=middle;whiteSpace=wrap;rounded=0;" vertex="1" parent="1">
          <mxGeometry x="110" y="186" width="80" height="30" as="geometry" />
        </mxCell>
        <mxCell id="i6YcqsCiEfbS-OPXxfi0-25" value="&lt;b&gt;Output&lt;/b&gt;" style="text;html=1;align=center;verticalAlign=middle;whiteSpace=wrap;rounded=0;" vertex="1" parent="1">
          <mxGeometry x="870" y="186" width="80" height="30" as="geometry" />
        </mxCell>
        <mxCell id="i6YcqsCiEfbS-OPXxfi0-40" style="edgeStyle=orthogonalEdgeStyle;rounded=0;orthogonalLoop=1;jettySize=auto;html=1;exitX=0;exitY=0;exitDx=100;exitDy=80;exitPerimeter=0;entryX=0.5;entryY=0;entryDx=0;entryDy=0;" edge="1" parent="1" source="i6YcqsCiEfbS-OPXxfi0-29" target="i6YcqsCiEfbS-OPXxfi0-9">
          <mxGeometry relative="1" as="geometry" />
        </mxCell>
        <mxCell id="i6YcqsCiEfbS-OPXxfi0-41" style="edgeStyle=orthogonalEdgeStyle;rounded=0;orthogonalLoop=1;jettySize=auto;html=1;exitX=0;exitY=0;exitDx=100;exitDy=80;exitPerimeter=0;entryX=0.5;entryY=0;entryDx=0;entryDy=0;" edge="1" parent="1" source="i6YcqsCiEfbS-OPXxfi0-29" target="i6YcqsCiEfbS-OPXxfi0-6">
          <mxGeometry relative="1" as="geometry" />
        </mxCell>
        <mxCell id="i6YcqsCiEfbS-OPXxfi0-29" value="data-extraction" style="shape=cube;whiteSpace=wrap;html=1;boundedLbl=1;backgroundOutline=1;darkOpacity=0.05;darkOpacity2=0.1;" vertex="1" parent="1">
          <mxGeometry x="270" y="200" width="180" height="80" as="geometry" />
        </mxCell>
        <mxCell id="i6YcqsCiEfbS-OPXxfi0-13" value="&lt;font face=&quot;Helvetica&quot;&gt;app.py&lt;/font&gt;" style="rounded=0;whiteSpace=wrap;html=1;fillColor=#008a00;strokeColor=#005700;fontColor=#ffffff;" vertex="1" parent="1">
          <mxGeometry x="645" y="330" width="120" height="50" as="geometry" />
        </mxCell>
      </root>
    </mxGraphModel>
  </diagram>
</mxfile>
